<?xml version="1.0" encoding="UTF-8"?>
<svg width="100px" height="100px" viewBox="0 0 100 100" version="1.1" xmlns="http://www.w3.org/2000/svg" xmlns:xlink="http://www.w3.org/1999/xlink">
    <!-- Generator: Sketch Beta 41.2 (35396) - http://www.bohemiancoding.com/sketch -->
    <title>Group 2 Copy</title>
    <desc>Created with Sketch Beta.</desc>
    <defs></defs>
    <g id="Page-1" stroke="none" stroke-width="1" fill="none" fill-rule="evenodd">
        <g id="Group-2-Copy">
            <ellipse id="Oval" fill="#01D599" cx="49.6025437" cy="50" rx="49.6025437" ry="50"></ellipse>
            <path d="M41.6893096,37.3625 L41.6893096,40.46875 L53.1014308,40.46875 L53.1014308,50.925 L43.0044611,50.925 L43.0044611,53.94375 L53.1014308,53.94375 L53.1014308,65.45 L41.0105218,65.45 L41.0105218,68.55625 L68.3317339,68.55625 L68.3317339,65.45 L56.2408248,65.45 L56.2408248,53.94375 L66.252946,53.94375 L66.252946,50.925 L56.2408248,50.925 L56.2408248,40.46875 L67.4408248,40.46875 L67.4408248,37.3625 L54.8408248,37.3625 L56.283249,36.79375 C55.7317339,34.69375 54.9680975,32.41875 53.9499157,29.88125 L50.8953702,30.7125 C51.8711278,32.85625 52.7196127,35.0875 53.4408248,37.3625 L41.6893096,37.3625 Z M39.1862793,29.6625 C37.1499157,36.4 33.883249,42.39375 29.3862793,47.6 L30.3620369,50.925 C31.9741581,49.21875 33.4590066,47.425 34.8165824,45.5 L34.8165824,70.0875 L37.8287036,70.0875 L37.8287036,40.775 C39.5256733,37.7125 40.9256733,34.475 42.0287036,31.01875 L39.1862793,29.6625 Z" id="ä½" fill="#FFFFFF"></path>
        </g>
    </g>
</svg>