<?xml version="1.0" encoding="UTF-8"?>
<svg width="100px" height="100px" viewBox="0 0 100 100" version="1.1" xmlns="http://www.w3.org/2000/svg" xmlns:xlink="http://www.w3.org/1999/xlink">
    <!-- Generator: Sketch Beta 41.2 (35396) - http://www.bohemiancoding.com/sketch -->
    <title>Group 2</title>
    <desc>Created with Sketch Beta.</desc>
    <defs></defs>
    <g id="Page-1" stroke="none" stroke-width="1" fill="none" fill-rule="evenodd">
        <g id="Group-2">
            <ellipse id="Oval" fill="#F7776F" cx="49.818207" cy="50" rx="49.818207" ry="50"></ellipse>
            <path d="M59.9792632,47.64375 L38.717524,47.64375 L38.717524,38.15 L35.777524,38.15 L35.777524,50.26875 L46.2592632,50.26875 C45.9183936,51.31875 45.6201327,52.36875 45.2792632,53.33125 L33.1783936,53.33125 L33.1783936,69.95625 L36.1183936,69.95625 L36.1183936,56.175 L44.2140458,56.175 C43.1914371,58.625 42.1688284,60.725 41.0610023,62.475 C40.8479588,62.7375 40.4218718,62.9125 39.7401327,63 L40.4644805,65.84375 C47.5801327,65.0125 52.7783936,64.26875 56.0592632,63.65625 C56.4001327,64.4 56.783611,65.1875 57.1670892,66.0625 L59.6383936,64.79375 C58.1470892,61.73125 56.5279588,58.84375 54.823611,56.175 L62.6210023,56.175 L62.6210023,65.7125 C62.6210023,66.63125 62.0670892,67.1125 61.0018718,67.1125 L57.6357849,66.98125 L58.4027414,69.95625 L61.9818718,69.95625 C64.3679588,69.95625 65.5610023,68.73125 65.5610023,66.36875 L65.5610023,53.33125 L48.2192632,53.33125 C48.5601327,52.36875 48.9010023,51.3625 49.2418718,50.26875 L62.9192632,50.26875 L62.9192632,38.15 L59.9792632,38.15 L59.9792632,47.64375 Z M53.8862197,56.175 L52.3096979,56.9625 C53.1192632,58.275 53.9288284,59.675 54.7810023,61.20625 C51.3723066,61.81875 47.7931762,62.3 44.043611,62.69375 C45.0662197,60.85625 46.1314371,58.7125 47.1540458,56.175 L53.8862197,56.175 Z M42.4670892,37.275 L41.1462197,39.2875 C43.3192632,40.075 45.4923066,41.0375 47.6653501,42.0875 C45.5349153,43.225 43.1914371,44.14375 40.5496979,44.93125 L41.9131762,47.20625 C45.3218718,45.98125 48.0914371,44.7125 50.3070892,43.44375 C52.3949153,44.5375 54.4827414,45.80625 56.5705675,47.20625 L57.9766545,45.01875 C56.2723066,43.925 54.5253501,42.875 52.6931762,41.9125 C54.1418718,40.8625 55.6331762,39.6375 57.1244805,38.2375 L54.9514371,36.88125 C53.5027414,38.28125 51.9262197,39.50625 50.1792632,40.64375 C47.7079588,39.41875 45.1514371,38.28125 42.4670892,37.275 L42.4670892,37.275 Z M49.923611,29.575 L46.7705675,30.1 C47.2818718,31.0625 47.7931762,32.06875 48.2618718,33.20625 L31.0479588,33.20625 L31.0479588,36.1375 L67.6062197,36.1375 L67.6062197,33.20625 L51.3296979,33.20625 C50.903611,31.85 50.4349153,30.625 49.923611,29.575 L49.923611,29.575 Z" id="离" fill="#FFFFFF"></path>
        </g>
    </g>
</svg>