<?xml version="1.0" encoding="UTF-8"?>
<svg width="108px" height="108px" viewBox="0 0 108 108" version="1.1" xmlns="http://www.w3.org/2000/svg" xmlns:xlink="http://www.w3.org/1999/xlink">
    <!-- Generator: Sketch Beta 41.2 (35396) - http://www.bohemiancoding.com/sketch -->
    <title>1476603700_refresh</title>
    <desc>Created with Sketch Beta.</desc>
    <defs></defs>
    <g id="Page-1" stroke="none" stroke-width="1" fill="none" fill-rule="evenodd">
        <g id="1476603700_refresh" transform="translate(4.000000, 4.000000)" stroke-width="8" stroke="#4A4A4A">
            <g id="Layer_1">
                <g id="Group">
                    <path d="M14.6484375,85.3515625 C5.21484375,75.8984375 0,63.359375 0,50 C0,36.640625 5.1953125,24.0820312 14.6484375,14.6484375 C24.1015625,5.21484375 36.640625,0 50,0 C59.4726562,0 68.6914062,2.65625 76.6796875,7.6953125 C82.2851563,11.2304688 87.0898438,15.8203125 90.8789062,21.1914062 L90.8789062,4.765625 C90.8789062,3.6328125 91.796875,2.71484375 92.9296875,2.71484375 C94.0625,2.71484375 94.9804688,3.6328125 94.9804688,4.765625 L94.9804688,28.6523437 C94.9804688,29.609375 94.3164062,30.4296875 93.3984375,30.6640625 C92.4609375,30.8789062 91.5039062,30.4296875 91.0742188,29.5703125 C83.2617188,13.8671875 67.5195312,4.12109375 50,4.12109375 C24.7070312,4.12109375 4.12109375,24.7070312 4.12109375,50 C4.12109375,75.2929688 24.7070312,95.8789062 50,95.8789062 C75.2929688,95.8789062 95.8789062,75.2929688 95.8789062,50 C95.8789062,48.8671875 96.796875,47.9492187 97.9296875,47.9492187 C99.0625,47.9492187 99.9804688,48.8671875 99.9804688,50 C99.9804688,63.359375 94.7851562,75.9179687 85.3320312,85.3515625 C75.8789062,94.7851563 63.359375,100 50,100 C36.640625,100 24.0820313,94.8046875 14.6484375,85.3515625 Z" id="Shape"></path>
                    <path d="M92.734375,30.8984375 L69.8242188,30.8984375 C68.6914062,30.8984375 67.7734375,29.9804688 67.7734375,28.8476562 C67.7734375,27.7148437 68.6914062,26.796875 69.8242188,26.796875 L92.734375,26.796875 C93.8671875,26.796875 94.7851562,27.7148437 94.7851562,28.8476562 C94.7851562,29.9804688 93.8671875,30.8984375 92.734375,30.8984375 L92.734375,30.8984375 Z" id="Shape"></path>
                </g>
            </g>
        </g>
    </g>
</svg>