<?xml version="1.0" encoding="UTF-8"?>
<svg width="59px" height="53px" viewBox="0 0 59 53" version="1.1" xmlns="http://www.w3.org/2000/svg" xmlns:xlink="http://www.w3.org/1999/xlink">
    <!-- Generator: Sketch Beta 41.2 (35396) - http://www.bohemiancoding.com/sketch -->
    <title>logo</title>
    <desc>Created with Sketch Beta.</desc>
    <defs>
        <path d="M6.14032423,18.1438655 C3.54868989,20.3470225 1.30352698,24.6846253 1.12530729,27.8324319 L0.00646927638,47.5939162 C-0.136185704,50.1135608 2.09772713,52.1533947 4.99586177,52.1533947 L53.2684467,52.1533947 C56.1668503,52.1533947 58.4004085,50.1120466 58.2578392,47.5939161 L57.1390012,27.8324316 C56.9608527,24.6858819 54.7154819,20.346906 52.1239842,18.1438651 L31.9454332,0.990011994 C30.3936222,-0.329187697 27.872606,-0.33082006 26.3188748,0.990012035 L6.14032423,18.1438655 Z M11.0225092,36.099787 C11.2668089,36.3640229 11.5574528,36.6527229 11.8955444,36.9593504 C12.8378532,37.8139647 13.9822486,38.6604739 15.3367429,39.4453108 C19.1491409,41.6543348 23.8858493,42.9717422 29.5748102,42.9717422 C35.2637711,42.9717422 40.0004795,41.6543348 43.8128775,39.4453108 C45.1673718,38.6604739 46.3117672,37.8139647 47.254076,36.9593504 C47.5921676,36.6527229 47.8828115,36.3640229 48.1271112,36.099787 C48.2852637,35.9287283 48.3991383,35.7952805 48.4698402,35.7058982 C49.1343516,34.8658132 48.9899668,33.6477169 48.1473476,32.985204 C47.3047284,32.3226911 46.0829576,32.4666417 45.4184462,33.3067267 C45.4084628,33.3193478 45.3591332,33.3771565 45.2697287,33.4738569 C45.1014333,33.6558861 44.891462,33.864453 44.6390842,34.0933436 C43.894338,34.7687812 42.970257,35.4523238 41.8601838,36.0955354 C38.6309603,37.9666496 34.5656419,39.0973252 29.5748102,39.0973252 C24.5839785,39.0973252 20.5186601,37.9666496 17.2894366,36.0955354 C16.1793634,35.4523238 15.2552825,34.7687812 14.5105362,34.0933436 C14.2581584,33.864453 14.0481871,33.6558861 13.8798917,33.4738569 C13.7904873,33.3771565 13.7411576,33.3193478 13.7311742,33.3067267 C13.0666628,32.4666417 11.844892,32.3226911 11.0022728,32.985204 C10.1596536,33.6477169 10.0152688,34.8658132 10.6797802,35.7058982 C10.7504821,35.7952805 10.8643567,35.9287283 11.0225092,36.099787 Z" id="path-1"></path>
    </defs>
    <g id="Page-1" stroke="none" stroke-width="1" fill="none" fill-rule="evenodd">
        <g id="logo" transform="translate(0.000000, -3.000000)">
            <g id="Group-5" transform="translate(0.000000, 3.000000)">
                <mask id="mask-2" fill="white">
                    <use xlink:href="#path-1"></use>
                </mask>
                <use id="Combined-Shape" fill="#01D987" xlink:href="#path-1"></use>
            </g>
        </g>
    </g>
</svg>