<?xml version="1.0" encoding="UTF-8"?>
<svg width="96px" height="96px" viewBox="0 0 96 96" version="1.1" xmlns="http://www.w3.org/2000/svg" xmlns:xlink="http://www.w3.org/1999/xlink">
    <!-- Generator: Sketch Beta 41.2 (35396) - http://www.bohemiancoding.com/sketch -->
    <title>Group</title>
    <desc>Created with Sketch Beta.</desc>
    <defs></defs>
    <g id="Page-1" stroke="none" stroke-width="1" fill="none" fill-rule="evenodd">
        <g id="Group">
            <circle id="Oval-4" fill="#BBBBBB" cx="48" cy="48" r="48"></circle>
            <path d="M32.586,31.954 L32.586,34.894 L44.64,34.894 L44.64,37.708 C44.598,40.312 44.43,42.79 44.094,45.058 L29.772,45.058 L29.772,47.956 L43.59,47.956 C43.044,50.602 42.288,52.996 41.28,55.096 C39.012,59.38 35.022,62.782 29.226,65.386 L30.906,68.074 C36.744,65.554 40.944,61.984 43.548,57.448 C44.976,54.76 46.026,51.61 46.698,47.956 L50.1,47.956 L50.1,63.244 C50.1,66.1 51.444,67.528 54.216,67.528 L61.02,67.528 C62.784,67.528 64.044,67.15 64.842,66.394 C65.766,65.47 66.396,62.992 66.732,58.876 L63.876,57.952 C63.666,61.228 63.288,63.16 62.7,63.832 C62.238,64.378 61.482,64.672 60.474,64.672 L55.14,64.672 C53.796,64.672 53.124,63.958 53.124,62.614 L53.124,47.956 L66.144,47.956 L66.144,45.058 L47.16,45.058 C47.454,42.79 47.622,40.312 47.706,37.708 L47.706,34.894 L62.742,34.894 L62.742,31.954 L32.586,31.954 Z" id="无" fill="#FFFFFF"></path>
        </g>
    </g>
</svg>