<?xml version="1.0" encoding="UTF-8"?>
<svg width="64px" height="83px" viewBox="0 0 64 83" version="1.1" xmlns="http://www.w3.org/2000/svg" xmlns:xlink="http://www.w3.org/1999/xlink">
    <!-- Generator: Sketch Beta 41.2 (35396) - http://www.bohemiancoding.com/sketch -->
    <title>profie</title>
    <desc>Created with Sketch Beta.</desc>
    <defs></defs>
    <g id="Page-1" stroke="none" stroke-width="1" fill="none" fill-rule="evenodd">
        <g id="profie" transform="translate(-18.000000, -9.000000)" fill="#01D987">
            <path d="M49.6827957,45.6744186 C59.7573585,45.6744186 67.9244053,37.4645704 67.9244053,27.3372093 C67.9244053,17.2098483 59.7573585,9 49.6827957,9 C39.6082329,9 31.4411861,17.2098483 31.4411861,27.3372093 C31.4411861,37.4645704 39.6082329,45.6744186 49.6827957,45.6744186 Z M18,65.3984865 C18,58.7693366 23.3751802,53.3953488 29.9930777,53.3953488 L69.3725137,53.3953488 C75.9961076,53.3953488 81.3655914,58.7631602 81.3655914,65.3984865 L81.3655914,79.9968624 C81.3655914,86.6260122 75.9904112,92 69.3725137,92 L29.9930777,92 C23.3694838,92 18,86.6321887 18,79.9968624 L18,65.3984865 Z" id="Combined-Shape"></path>
        </g>
    </g>
</svg>