<?xml version="1.0" encoding="UTF-8"?>
<svg width="91px" height="72px" viewBox="0 0 91 72" version="1.1" xmlns="http://www.w3.org/2000/svg" xmlns:xlink="http://www.w3.org/1999/xlink">
    <!-- Generator: Sketch Beta 41.2 (35396) - http://www.bohemiancoding.com/sketch -->
    <title>Group 6</title>
    <desc>Created with Sketch Beta.</desc>
    <defs></defs>
    <g id="Page-1" stroke="none" stroke-width="1" fill="none" fill-rule="evenodd">
        <g id="Group-6" transform="translate(-5.000000, -16.000000)" fill="#01D987">
            <g id="Group-11" transform="translate(5.000000, 16.000000)">
                <path d="M91,29.7520661 L91,25.8556384 C91,21.425032 87.4201192,17.8512397 83.0041124,17.8512397 L7.99588761,17.8512397 C3.58130964,17.8512397 0,21.4349311 0,25.8556384 L0,29.7520661 L91,29.7520661 Z M91,33.7520661 L91,63.9956012 C91,68.4163086 87.4186904,72 83.0041124,72 L7.99588761,72 C3.57988082,72 0,68.4262077 0,63.9956012 L0,33.7520661 L91,33.7520661 Z" id="Combined-Shape"></path>
                <path d="M57.3181818,14.2809917 L63.2272727,14.2809917 L63.2272727,5.99435333 C63.2272727,2.68614531 60.5435232,1.13686838e-13 57.2329504,1.13686838e-13 L33.7670496,1.13686838e-13 C30.4666809,1.13686838e-13 27.7727273,2.6837634 27.7727273,5.99435333 L27.7727273,14.2809917 L33.6818182,14.2809917 L33.6818182,6.54545455 L57.3181818,6.54545455 L57.3181818,14.2809917 Z" id="Combined-Shape"></path>
            </g>
        </g>
    </g>
</svg>